<svg width="18" height="21" viewBox="0 0 18 21" fill="none" xmlns="http://www.w3.org/2000/svg">
<path d="M8.83418 20.06L1.60993 18.0547L0 0H17.69L16.0784 18.0519L8.83418 20.06Z" fill="#264DE4"/>
<path d="M14.6987 16.9024L16.0758 1.4762H8.845V18.5251L14.6987 16.9024Z" fill="#2965F1"/>
<path d="M3.6907 8.17246L3.88916 10.3868H8.84501V8.17246H3.6907ZM3.29184 3.69061L3.49314 5.90495H8.84501V3.69061H3.29184ZM8.84501 13.9233L8.8353 13.9259L6.36892 13.26L6.21123 11.494H3.98811L4.29835 14.9709L8.83481 16.23L8.84501 16.2272V13.9233Z" fill="#EBEBEB"/>
<path d="M13.9852 8.17246L14.3849 3.69061H8.83736V5.90495H11.9579L11.7564 8.17246H8.83736V10.3868H11.5644L11.3073 13.2586L8.8373 13.9252V16.2289L13.3774 14.9709L13.4107 14.5967L13.9311 8.76708L13.9852 8.17246Z" fill="white"/>
</svg>
