<svg width="18" height="21" viewBox="0 0 18 21" fill="none" xmlns="http://www.w3.org/2000/svg">
<path d="M1.60994 18.0561L0 0H17.69L16.0779 18.0533L8.83425 20.0616L1.60994 18.0561Z" fill="#E44F26"/>
<path d="M8.845 18.5269L14.6987 16.904L16.0758 1.47668H8.845V18.5269Z" fill="#F1662A"/>
<path d="M8.845 8.17294H5.91458L5.71253 5.90527H8.845V3.69061H3.29225L3.34527 4.28529L3.88908 10.3876H8.845V8.17294ZM8.845 13.9242L8.83497 13.927L6.36883 13.2614L6.21121 11.4953H3.98795L4.29819 14.9717L8.83497 16.2312L8.845 16.2284V13.9242Z" fill="#EBEBEB"/>
<path d="M8.83713 8.17294V10.3876H11.5641L11.3076 13.26L8.83713 13.9263V16.2305L13.3775 14.9717L13.4104 14.5977L13.9306 8.76762L13.9851 8.17294H8.83713ZM8.83713 3.69061V5.90527H14.1864L14.2308 5.40803L14.3318 4.28529L14.3849 3.69061H8.83713Z" fill="white"/>
</svg>
