<svg width="19" height="19" viewBox="0 0 19 19" fill="none" xmlns="http://www.w3.org/2000/svg">
<path d="M0 0H19V19H0V0Z" fill="#F7DF1E"/>
<path d="M4.99582 15.8778L6.44977 14.9978C6.73032 15.4952 6.98548 15.916 7.59756 15.916C8.18426 15.916 8.55424 15.6865 8.55424 14.7938V8.72285H10.3397V14.819C10.3397 16.6683 9.25568 17.5101 7.67408 17.5101C6.24574 17.5101 5.41664 16.7704 4.99575 15.8776M11.3095 15.6864L12.7633 14.8447C13.1461 15.4697 13.6435 15.9288 14.5234 15.9288C15.2633 15.9288 15.7351 15.5589 15.7351 15.0487C15.7351 14.4366 15.2504 14.2197 14.4341 13.8627L13.9879 13.6712C12.6997 13.123 11.8452 12.4342 11.8452 10.9803C11.8452 9.64109 12.8655 8.62073 14.4598 8.62073C15.5949 8.62073 16.4111 9.01616 16.9977 10.0492L15.6075 10.9421C15.3013 10.3937 14.9699 10.1769 14.4597 10.1769C13.9367 10.1769 13.6051 10.5085 13.6051 10.9421C13.6051 11.4777 13.9367 11.6946 14.7019 12.0263L15.1483 12.2175C16.6661 12.868 17.5205 13.5312 17.5205 15.0233C17.5205 16.6304 16.2579 17.5104 14.5617 17.5104C12.9037 17.5104 11.8323 16.7196 11.3095 15.6865" fill="black"/>
</svg>
